<?xml version="1.0" encoding="UTF-8"?>
<svg id="Capa_2" data-name="Capa 2" xmlns="http://www.w3.org/2000/svg" viewBox="0 0 16.07 17.4">
  <defs>
    <style>
      .cls-1 {
        fill: #fa0050;
      }
    </style>
  </defs>
  <g id="Capa_1-2" data-name="Capa 1">
    <g>
      <path class="cls-1" d="M4.22,0c-.13,0-.24.08-.27.2-.62,2.42-1.23,4.83-1.85,7.25h0l-.05.6c-.01.18.15.32.33.28l1.43-.31c.12-.03.21-.13.21-.25l.1-2.59c.01-.31.45-.35.53-.05l.57,2.33c.03.14.18.23.32.2l4.95-1.13c.12-.03.21-.14.21-.26v-2.3c0-.22.25-.35.43-.22l3.2,2.37c.21.16.5-.05.41-.3l-1.03-3.07c-.04-.11-.14-.19-.26-.18l-8.39.21c-.07,0-.14-.02-.19-.08-.12-.12-.2-.24-.26-.36-.15-.31.32-.55.48-.24h0c.05.09.14.14.24.14l8.71-.13c.07,0,.15-.03.2-.09.33-.38-.27-1.15-.64-1.67-.05-.07-.13-.11-.21-.11C10.33.15,7.28.08,4.22,0Z"/>
      <path class="cls-1" d="M.27,10.38h10.56c.18,0,.31.18.25.35l-.41,1.31c-.08.24.2.45.41.3l4.87-3.43c.15-.11.15-.33,0-.43l-3.83-2.81c-.18-.13-.43,0-.43.22v1.15c0,.12-.09.23-.21.26L.21,9.85c-.31.07-.26.53.06.53Z"/>
      <path class="cls-1" d="M1.52,15.51c1.4.62,2.8,1.24,4.2,1.86.05.02.1.03.16.02,3.21-.63,6.43-1.19,9.63-1.86.13-.03.21-.14.21-.27-.05-1.47-.09-2.94-.14-4.41,0-.21-.24-.33-.41-.21l-5.93,4.16c-.21.15-.48-.06-.4-.3l.91-2.8c.05-.17-.07-.34-.25-.34h-3.6c-.15,0-.26.12-.26.27l.05,4.41c0,.26-.33.37-.48.15l-1.17-1.7c-.07-.1-.2-.14-.31-.1l-1.25.49c-.08.03-.14-.08-.07-.13l1.31-1c.06-.05.1-.12.1-.2l.09-1.92c0-.15-.11-.28-.26-.28h-1.71c-.14,0-.25.1-.26.24l-.3,3.64c0,.11.05.22.16.26Z"/>
    </g>
  </g>
</svg>