<?xml version="1.0" encoding="UTF-8"?>
<svg id="Capa_2" data-name="Capa 2" xmlns="http://www.w3.org/2000/svg" viewBox="0 0 177.82 36.54">
  <defs>
    <style>
      .cls-1 {
        fill: #fa0050;
      }

      .cls-2 {
        fill: #ffffff;
        font-family: Montserrat-SemiBoldItalic, 'Montserrat SemiBold';
        font-size: 26.24px;
        font-style: italic;
        font-weight: 600;
        letter-spacing: 0em;
      }

      .cls-3 {
        fill: #fff;
        font-family: Montserrat-Medium, 'Montserrat Medium';
        font-size: 9.23px;
        font-weight: 500;
        letter-spacing: 0em;
      }
    </style>
  </defs>
  <g id="Capa_1-2" data-name="Capa 1">
    <g>
      <text class="cls-2" transform="translate(27.75 24.2)"><tspan x="0" y="0">FoodFast</tspan></text>
      <g>
        <path class="cls-1" d="M6.78,0c-.2,0-.38.13-.43.32-.99,3.87-1.98,7.75-2.97,11.62h0l-.08.97c-.02.29.24.52.52.46l2.29-.5c.19-.04.33-.21.34-.4l.17-4.15c.02-.5.73-.57.85-.08l.91,3.73c.06.23.28.37.51.32l7.94-1.81c.2-.04.33-.22.33-.42v-3.7c0-.35.4-.56.69-.35l5.13,3.8c.34.25.8-.08.66-.48l-1.65-4.92c-.06-.18-.23-.3-.42-.29l-13.46.34c-.12,0-.23-.04-.31-.12-.19-.19-.32-.38-.41-.58-.24-.5.51-.88.77-.39h0c.08.14.22.23.39.23l13.97-.21c.12,0,.24-.05.31-.14.53-.61-.43-1.85-1.02-2.67-.08-.11-.2-.18-.34-.18C16.57.25,11.67.12,6.78,0Z"/>
        <path class="cls-1" d="M.43,16.64h16.93c.29,0,.5.28.41.56l-.66,2.09c-.12.39.32.71.66.48l7.82-5.5c.24-.17.24-.52,0-.7l-6.14-4.5c-.28-.21-.68,0-.68.35v1.84c0,.2-.14.37-.33.42L.33,15.8c-.5.11-.42.85.09.85Z"/>
        <path class="cls-1" d="M2.44,24.87c2.25,1,4.5,1.99,6.74,2.99.08.04.17.04.25.03,5.14-1.01,10.31-1.91,15.44-2.98.2-.04.34-.22.34-.43-.07-2.36-.15-4.71-.22-7.07-.01-.34-.39-.53-.66-.33l-9.5,6.67c-.33.23-.77-.09-.64-.48l1.45-4.5c.09-.27-.12-.55-.4-.55h-5.77c-.24,0-.42.19-.42.43l.08,7.07c0,.42-.53.59-.77.24l-1.87-2.72c-.11-.16-.32-.23-.5-.15l-2.01.79c-.13.05-.23-.12-.12-.21l2.1-1.61c.1-.08.16-.19.17-.31l.15-3.08c.01-.24-.18-.44-.42-.44h-2.75c-.22,0-.4.17-.42.39l-.48,5.84c-.01.18.09.35.25.42Z"/>
      </g>
      <g>
        <rect class="cls-1" x="157.22" y="10.25" width="20.6" height="13.8" rx="3.5" ry="3.5"/>
        <text class="cls-3" transform="translate(159.21 20.42)"><tspan x="0" y="0">Pro</tspan></text>
      </g>
    </g>
  </g>
</svg>
